<mxfile host="65bd71144e">
    <diagram id="onUhv2hnZ5UNghu5VzFY" name="Page-1">
        <mxGraphModel dx="907" dy="489" grid="1" gridSize="10" guides="1" tooltips="1" connect="1" arrows="1" fold="1" page="1" pageScale="1" pageWidth="850" pageHeight="1100" math="0" shadow="0">
            <root>
                <mxCell id="0"/>
                <mxCell id="1" parent="0"/>
                <mxCell id="2" value="User Starts Application" style="rounded=1;whiteSpace=wrap;html=1;fillColor=#e1d5e7;strokeColor=#9673a6;" parent="1" vertex="1">
                    <mxGeometry x="320" y="40" width="160" height="60" as="geometry"/>
                </mxCell>
                <mxCell id="3" value="User Logs In / Registers" style="rounded=1;whiteSpace=wrap;html=1;fillColor=#e1d5e7;strokeColor=#9673a6;" parent="1" vertex="1">
                    <mxGeometry x="320" y="140" width="160" height="60" as="geometry"/>
                </mxCell>
                <mxCell id="4" value="User Uploads Paper(s) (PDFs)" style="rounded=1;whiteSpace=wrap;html=1;fillColor=#e1d5e7;strokeColor=#9673a6;" parent="1" vertex="1">
                    <mxGeometry x="320" y="240" width="160" height="60" as="geometry"/>
                </mxCell>
                <mxCell id="5" value="System: Stores Metadata (DB) &amp; Sends to GenAI for Indexing (VectorDB)" style="ellipse;whiteSpace=wrap;html=1;fillColor=#f8cecc;strokeColor=#b85450;" parent="1" vertex="1">
                    <mxGeometry x="610" y="230" width="140" height="80" as="geometry"/>
                </mxCell>
                <mxCell id="6" value="User Requests: Summary (Single Paper) OR Comparison (Multiple Papers)" style="rhombus;whiteSpace=wrap;html=1;fillColor=#e1d5e7;strokeColor=#9673a6;" parent="1" vertex="1">
                    <mxGeometry x="320" y="340" width="160" height="100" as="geometry"/>
                </mxCell>
                <mxCell id="7" value="System: Sends Request &amp; Paper Context to GenAI Service" style="ellipse;whiteSpace=wrap;html=1;fillColor=#f8cecc;strokeColor=#b85450;" parent="1" vertex="1">
                    <mxGeometry x="590" y="330" width="140" height="120" as="geometry"/>
                </mxCell>
                <mxCell id="8" value="GenAI Service: Performs RAG on Paper VectorDB (using relevant paper(s) context)" style="ellipse;whiteSpace=wrap;html=1;fillColor=#f8cecc;strokeColor=#b85450;" parent="1" vertex="1">
                    <mxGeometry x="320" y="480" width="160" height="80" as="geometry"/>
                </mxCell>
                <mxCell id="9" value="GenAI Service: Generates Summary OR Comparative Analysis using LLM" style="ellipse;whiteSpace=wrap;html=1;fillColor=#f8cecc;strokeColor=#b85450;" parent="1" vertex="1">
                    <mxGeometry x="320" y="600" width="160" height="80" as="geometry"/>
                </mxCell>
                <mxCell id="10" value="System: Displays Summary / Comparison to User (with citations)" style="rounded=1;whiteSpace=wrap;html=1;fillColor=#e1d5e7;strokeColor=#9673a6;" parent="1" vertex="1">
                    <mxGeometry x="320" y="720" width="160" height="80" as="geometry"/>
                </mxCell>
                <mxCell id="11" value="User Reviews Output, Optionally Asks Follow-up Questions" style="rounded=1;whiteSpace=wrap;html=1;fillColor=#e1d5e7;strokeColor=#9673a6;" parent="1" vertex="1">
                    <mxGeometry x="320" y="840" width="160" height="80" as="geometry"/>
                </mxCell>
                <mxCell id="12" value="" style="endArrow=classic;html=1;rounded=0;" parent="1" source="2" target="3" edge="1">
                    <mxGeometry width="50" height="50" relative="1" as="geometry">
                        <mxPoint x="400" y="120" as="sourcePoint"/>
                        <mxPoint x="400" y="120" as="targetPoint"/>
                    </mxGeometry>
                </mxCell>
                <mxCell id="13" value="" style="endArrow=classic;html=1;rounded=0;" parent="1" source="3" target="4" edge="1">
                    <mxGeometry width="50" height="50" relative="1" as="geometry">
                        <mxPoint x="400" y="220" as="sourcePoint"/>
                        <mxPoint x="400" y="220" as="targetPoint"/>
                    </mxGeometry>
                </mxCell>
                <mxCell id="14" value="Upload &amp; Process" style="endArrow=classic;html=1;rounded=0;exitX=1;exitY=0.5;exitDx=0;exitDy=0;entryX=0;entryY=0.5;entryDx=0;entryDy=0;" parent="1" source="4" target="5" edge="1">
                    <mxGeometry width="50" height="50" relative="1" as="geometry">
                        <mxPoint x="490" y="270" as="sourcePoint"/>
                        <mxPoint x="510" y="270" as="targetPoint"/>
                    </mxGeometry>
                </mxCell>
                <mxCell id="15" value="Processing Done" style="endArrow=classic;html=1;rounded=0;exitX=0;exitY=1;exitDx=0;exitDy=0;entryX=0.5;entryY=0;entryDx=0;entryDy=0;" parent="1" source="5" target="6" edge="1">
                    <mxGeometry width="50" height="50" relative="1" as="geometry">
                        <mxPoint x="510" y="320" as="sourcePoint"/>
                        <mxPoint x="400" y="320" as="targetPoint"/>
                        <Array as="points">
                            <mxPoint x="450" y="320"/>
                        </Array>
                    </mxGeometry>
                </mxCell>
                <mxCell id="16" value="Request" style="endArrow=classic;html=1;rounded=0;exitX=1;exitY=0.5;exitDx=0;exitDy=0;entryX=0;entryY=0.5;entryDx=0;entryDy=0;" parent="1" source="6" target="7" edge="1">
                    <mxGeometry width="50" height="50" relative="1" as="geometry">
                        <mxPoint x="490" y="390" as="sourcePoint"/>
                        <mxPoint x="510" y="390" as="targetPoint"/>
                    </mxGeometry>
                </mxCell>
                <mxCell id="17" value="Contextualized Query" style="endArrow=classic;html=1;rounded=0;exitX=0.5;exitY=1;exitDx=0;exitDy=0;entryX=0.5;entryY=0;entryDx=0;entryDy=0;" parent="1" source="7" target="8" edge="1">
                    <mxGeometry width="50" height="50" relative="1" as="geometry">
                        <mxPoint x="590" y="460" as="sourcePoint"/>
                        <mxPoint x="400" y="460" as="targetPoint"/>
                        <Array as="points">
                            <mxPoint x="590" y="460"/>
                            <mxPoint x="400" y="460"/>
                        </Array>
                    </mxGeometry>
                </mxCell>
                <mxCell id="18" value="" style="endArrow=classic;html=1;rounded=0;" parent="1" source="8" target="9" edge="1">
                    <mxGeometry width="50" height="50" relative="1" as="geometry">
                        <mxPoint x="400" y="570" as="sourcePoint"/>
                        <mxPoint x="400" y="570" as="targetPoint"/>
                    </mxGeometry>
                </mxCell>
                <mxCell id="19" value="Generated Output" style="endArrow=classic;html=1;rounded=0;" parent="1" source="9" target="10" edge="1">
                    <mxGeometry width="50" height="50" relative="1" as="geometry">
                        <mxPoint x="400" y="700" as="sourcePoint"/>
                        <mxPoint x="400" y="700" as="targetPoint"/>
                    </mxGeometry>
                </mxCell>
                <mxCell id="20" value="" style="endArrow=classic;html=1;rounded=0;" parent="1" source="10" target="11" edge="1">
                    <mxGeometry width="50" height="50" relative="1" as="geometry">
                        <mxPoint x="400" y="810" as="sourcePoint"/>
                        <mxPoint x="400" y="810" as="targetPoint"/>
                    </mxGeometry>
                </mxCell>
                <mxCell id="21" value="Follow-up Loop (Optional)" style="endArrow=classic;html=1;rounded=0;entryX=1;entryY=1;entryDx=0;exitX=1;exitY=1;exitDx=0;entryDy=0;" parent="1" source="11" target="7" edge="1">
                    <mxGeometry width="50" height="50" relative="1" as="geometry">
                        <mxPoint x="490" y="880" as="sourcePoint"/>
                        <mxPoint x="680" y="500" as="targetPoint"/>
                        <Array as="points">
                            <mxPoint x="680" y="880"/>
                        </Array>
                    </mxGeometry>
                </mxCell>
            </root>
        </mxGraphModel>
    </diagram>
</mxfile>